<?xml version="1.0" encoding="UTF-8"?>
<svg width="30px" height="28px" viewBox="0 0 30 28" version="1.1" xmlns="http://www.w3.org/2000/svg" xmlns:xlink="http://www.w3.org/1999/xlink">
    <!-- Generator: Sketch 47.1 (45422) - http://www.bohemiancoding.com/sketch -->
    <title>speech-bubble.10</title>
    <desc>Created with Sketch.</desc>
    <defs></defs>
    <g id="home" stroke="none" stroke-width="1" fill="none" fill-rule="evenodd">
        <g id="Home-chuadangnhap-Copy-8" transform="translate(-555.000000, -2063.000000)" stroke="#009731" stroke-width="2" fill-rule="nonzero">
            <g id="speech-bubble.10" transform="translate(555.000000, 2063.000000)">
                <path d="M6.65857924,25.6380806 L14.2162666,20.5 L25.718,20.5 C27.530332,20.5 29.001,19.0530333 29.001,17.286 L29.0010001,4.71443048 C29.000239,2.94637736 27.5306438,1.5 25.718,1.5 L4.283,1.5 C2.47066799,1.5 1,2.94696665 1,4.714 L1,17.285 C1,19.0532922 2.46992719,20.5 4.283,20.5 L8.81800672,20.5 L8.23489027,21.8874511 L6.65857924,25.6380806 Z M6.65857924,25.6380806 L6.0048965,27.1934347 C6.09043535,26.9892801 6.03188469,26.7545668 5.85791354,26.6111469 C5.76963397,26.5393591 5.65854817,26.5 5.544,26.5 C5.44512719,26.5 5.34900539,26.5291662 5.26277579,26.5870152 L6.65857924,25.6380806 Z" id="Shape"></path>
            </g>
        </g>
    </g>
</svg>