<?xml version="1.0" encoding="UTF-8"?>
<svg width="24px" height="18px" viewBox="0 0 24 18" version="1.1" xmlns="http://www.w3.org/2000/svg" xmlns:xlink="http://www.w3.org/1999/xlink">
    <!-- Generator: Sketch 47.1 (45422) - http://www.bohemiancoding.com/sketch -->
    <title>Group 3</title>
    <desc>Created with Sketch.</desc>
    <defs></defs>
    <g id="home" stroke="none" stroke-width="1" fill="none" fill-rule="evenodd">
        <g id="Home-chuadangnhap-Copy-7" transform="translate(-924.000000, -194.000000)">
            <g id="Group-10" transform="translate(134.000000, 187.000000)">
                <g id="Group-12" transform="translate(790.000000, 0.000000)">
                    <g id="Group-3" transform="translate(0.000000, 7.000000)">
                        <g id="icons8-hdtv-filled" fill-rule="nonzero" fill="#FFFFFF">
                            <polygon id="Shape" points="0 0 0 15 24 15 24 0"></polygon>
                        </g>
                        <g id="Group-16" transform="translate(5.250000, 4.500000)" fill="#00BC39">
                            <polygon id="Path" points="0.990825688 0 2.72477064 0 2.38417431 1.83203125 4.65997706 1.83203125 5.01605505 0 6.75 0 5.75917431 5.25 4.02522936 5.25 4.41227064 3.10351562 2.13646789 3.10351562 1.73394495 5.25 0 5.25"></polygon>
                            <path d="M8.36462913,0 L11.3979182,0 C13.0757949,0 13.7118644,0.563965062 13.4390099,2.05078125 L13.2547447,3.14453125 C13.0279567,4.58862294 12.395431,5.25 10.7175543,5.25 L7.5,5.25 L8.22288665,1.23046875 L8.36462913,0 Z M9.85292518,1.23046875 L9.3568265,4.01953125 L10.7175543,4.01953125 C11.3075573,4.01953125 11.576868,3.71362294 11.6672289,3.14453125 L11.8514942,2.05078125 C11.9879212,1.35009787 11.7575899,1.23046875 11.213653,1.23046875 L9.85292518,1.23046875 Z" id="Combined-Shape"></path>
                        </g>
                        <path d="M5.19,16.3180568 C4.92562512,16.3424288 4.73062512,16.5786509 4.755,16.8429943 C4.77937488,17.1073377 5.01562512,17.3023145 5.28,17.2779425 L18.72,17.2779425 C18.8925,17.2798172 19.0537502,17.1898279 19.1418749,17.0398458 C19.2281251,16.8898636 19.2281251,16.7061357 19.1418749,16.5561536 C19.0537502,16.4061715 18.8925,16.3161822 18.72,16.3180568 L5.28,16.3180568 C5.265,16.3180568 5.25,16.3180568 5.235,16.3180568 C5.22,16.3180568 5.205,16.3180568 5.19,16.3180568 Z" id="Path" fill="#00BC39"></path>
                    </g>
                </g>
            </g>
        </g>
    </g>
</svg>