<?xml version="1.0" encoding="UTF-8"?>
<svg width="20px" height="30px" viewBox="0 0 20 30" version="1.1" xmlns="http://www.w3.org/2000/svg" xmlns:xlink="http://www.w3.org/1999/xlink">
    <!-- Generator: Sketch 47.1 (45422) - http://www.bohemiancoding.com/sketch -->
    <title>smartphone</title>
    <desc>Created with Sketch.</desc>
    <defs></defs>
    <g id="home" stroke="none" stroke-width="1" fill="none" fill-rule="evenodd">
        <g id="Home-chuadangnhap-Copy-8" transform="translate(-155.000000, -2062.000000)" fill-rule="nonzero" fill="#009731">
            <g id="Group-22" transform="translate(155.000000, 2062.000000)">
                <g id="smartphone">
                    <path d="M11.875,3.75 L8.125,3.75 C7.78,3.75 7.5,4.03 7.5,4.375 C7.5,4.72 7.78,5 8.125,5 L11.875,5 C12.22,5 12.5,4.72 12.5,4.375 C12.5,4.03 12.22,3.75 11.875,3.75 Z M11.25,26.25 C11.25,25.55875 10.69125,25 10,25 C9.30875,25 8.75,25.55875 8.75,26.25 C8.75,26.94125 9.30875,27.5 10,27.5 C10.69125,27.5 11.25,26.94125 11.25,26.25 Z M16.25,0 L3.75,0 C1.67875,0 0,1.67875 0,3.75 L0,26.25 C0,28.32125 1.67875,30 3.75,30 L16.25,30 C18.32125,30 20,28.32125 20,26.25 L20,3.75 C20,1.67875 18.32125,0 16.25,0 Z M17.5,26.25 C17.5,26.94125 16.94125,27.5 16.25,27.5 L10,27.5 L3.75,27.5 C3.05875,27.5 2.5,26.94125 2.5,26.25 L2.5,3.75 C2.5,3.05875 3.05875,2.5 3.75,2.5 L16.25,2.5 C16.94125,2.5 17.5,3.05875 17.5,3.75 L17.5,26.25 Z" id="Shape"></path>
                </g>
            </g>
        </g>
    </g>
</svg>